<svg id="Layer_1" data-name="Layer 1" xmlns="http://www.w3.org/2000/svg" viewBox="0 0 513.31 253.3"><defs><style>.cls-1{fill:#005d9a;}</style></defs><path class="cls-1" d="M198.12,106.43v0a3.32,3.32,0,0,0-.26-1,.17.17,0,0,0,0,0,3.84,3.84,0,0,0-.51-.85l-.08-.09a3.87,3.87,0,0,0-.4-.41l-.07-.06-.22-.16-.17-.12-.28-.15-.3-.14-.09,0-60.19-25.9V56.64h55.16V72.28a3.73,3.73,0,1,0,7.45,0V53.11a1.34,1.34,0,0,0,0-.2c0-.12,0-.24,0-.35v0a3.32,3.32,0,0,0-.26-1,.17.17,0,0,0,0-.05,3.62,3.62,0,0,0-.51-.85l-.08-.09a3.87,3.87,0,0,0-.4-.41l-.07-.06-.22-.16-.17-.12a2.49,2.49,0,0,0-.28-.15l-.3-.14-.09,0L133.26,22.55a3.79,3.79,0,0,0-1.47-.3H80a3.79,3.79,0,0,0-1.47.3L15.91,49.47l0,0a.43.43,0,0,0-.12,0l-.29.15-.19.12-.09.07A1.33,1.33,0,0,0,15,50l-.09.07-.16.15-.09.09-.14.16-.09.1-.12.17a.76.76,0,0,0-.08.11l-.1.17-.08.13c0,.06-.05.12-.08.17l-.09.2a2.25,2.25,0,0,0-.08.24.57.57,0,0,0,0,.14,1.33,1.33,0,0,0,0,.19l0,.14,0,.22s0,.08,0,.12,0,.17,0,.25V72.28a3.73,3.73,0,1,0,7.45,0V56.64H76.24V77.39l-60.33,26,0,0-.12,0-.29.15-.19.12-.09.07a1.33,1.33,0,0,0-.19.14l-.09.07c-.05.05-.11.1-.16.16l-.09.08-.14.16-.09.1-.12.17a.76.76,0,0,0-.08.11l-.1.17-.08.13c0,.06-.05.12-.08.17l-.09.2a2.25,2.25,0,0,0-.08.24.57.57,0,0,0,0,.14,1.33,1.33,0,0,0,0,.19l0,.14,0,.22s0,.08,0,.13,0,.16,0,.24v19.44a3.73,3.73,0,1,0,7.45,0V110.51H74.89l-44,140.42a.06.06,0,0,0,0,0,3.49,3.49,0,0,0-.12.54s0,0,0,0a4.89,4.89,0,0,0,0,.54v.11a4.6,4.6,0,0,0,.06.52s0,.06,0,.09a3.67,3.67,0,0,0,.38,1,.25.25,0,0,0,0,.07,4.27,4.27,0,0,0,.3.44l.06.08.14.16.2.19.06.06a3.79,3.79,0,0,0,.45.34l0,0,.05,0,.38.2.06,0a3.29,3.29,0,0,0,.44.16l.11,0,.35.07.13,0a3.55,3.55,0,0,0,.46,0,3.68,3.68,0,0,0,2.27-.77,3.11,3.11,0,0,0,.28-.23l106.16-99.36,26.41,84.24-50.21-47a3.72,3.72,0,1,0-5.09,5.44l60.54,56.67a3.75,3.75,0,0,0,2.55,1,3.66,3.66,0,0,0,2-.57,3.73,3.73,0,0,0,1.58-4.27l-44-140.42h53.82v15.64a3.73,3.73,0,1,0,7.45,0V107a1.34,1.34,0,0,0,0-.2C198.14,106.66,198.13,106.55,198.12,106.43ZM83.69,103.06V83.57h44.37v19.49Zm51.83-53.88V31.64l40.79,17.54ZM83.69,29.7h44.37V49.18H83.69ZM35.44,49.18l40.8-17.55V49.18Zm92.62,7.46V76.12H83.69V56.64ZM76.24,85.51v17.55H35.44Zm-7.62,69.9,31.8,29.76-58.2,54.48Zm72-7.89-34.78,32.55L71.1,147.52l11.6-37h46.35Zm-5.14-44.46V85.51l40.79,17.55Z" transform="translate(-13.62 -7.42)"/><path class="cls-1" d="M310.71,127l5-20.71c-10.8-4.9-19.35-19.87-19.35-32.55a36.4,36.4,0,0,1,70.78-11.95h14c2.27-3.7,8.79-8.66,7.71-11.28-1.38-3.32-13.73-.78-15.71-3.74s5.07-13.41,2.54-15.94-13,4.53-15.94,2.54S359.34,19,356,17.63s-10.2,9.16-13.75,8.46S336.42,13,332.78,13s-6,12.38-9.48,13.06-10.49-9.81-13.76-8.45-.78,13.72-3.74,15.7-13.41-5.06-15.94-2.54,4.54,13,2.54,15.94-14.33.42-15.71,3.74,9.16,10.2,8.46,13.75-13.06,5.84-13.06,9.48,12.38,6,13.06,9.49S275.34,93.68,276.7,97s13.72.78,15.7,3.74-5.06,13.41-2.54,15.94,13-4.53,15.94-2.54C307.66,115.33,310.38,122.84,310.71,127Z" transform="translate(-13.62 -7.42)"/><path class="cls-1" d="M305,180.37H526.92L500.82,72.21H331.12Zm203-14.92H455l-3.12-33.57h47.95ZM489.07,87.13l8.1,33.56h-46.3l-3.12-33.56Zm-93.72,0h41.17l3.12,33.56H392.22Zm-4.17,44.75h49.5l3.12,33.57H388.06ZM342.87,87.13h41.24L381,120.69H334.76ZM380,131.88l-3.13,33.57H324l8.1-33.57Z" transform="translate(-13.62 -7.42)"/><polygon class="cls-1" points="300.1 195.57 504.6 195.57 513.3 178.17 291.39 178.17 300.1 195.57"/><polygon class="cls-1" points="413.61 202.63 391.09 202.63 389.88 222.35 367.15 233.61 367.15 247.69 437.55 247.69 437.55 233.61 414.82 222.35 413.61 202.63"/><rect class="cls-1" x="238.58" width="4.4" height="253.3"/></svg>